<?xml version="1.0" encoding="UTF-8"?>
<!-- Generator: Adobe Illustrator 28.1.0, SVG Export Plug-In . SVG Version: 6.00 Build 0)  -->
<svg xmlns="http://www.w3.org/2000/svg" xmlns:xlink="http://www.w3.org/1999/xlink" version="1.1" id="Layer_1" x="0px" y="0px" viewBox="0 0 71 71" style="enable-background:new 0 0 71 71;" xml:space="preserve">
<style type="text/css">
	.st0{fill:#FFFFFF;}
	.st1{clip-path:url(#SVGID_00000175283246624117201810000000802929774055112838_);}
	.st2{fill:none;stroke:#232323;stroke-miterlimit:10;}
</style>
<rect class="st0" width="71" height="71"></rect>
<g>
	<defs>
		<rect id="SVGID_1_" x="19.5" y="19.5" width="32" height="32"></rect>
	</defs>
	<clipPath id="SVGID_00000077284409644369639140000001937232408433151369_">
		<use xlink:href="#SVGID_1_" style="overflow:visible;"></use>
	</clipPath>
	<g style="clip-path:url(#SVGID_00000077284409644369639140000001937232408433151369_);">
		<path class="st2" d="M42,27.5c0,3.6-2.9,6.5-6.5,6.5c-3.6,0-6.5-2.9-6.5-6.5c0-3.6,2.9-6.5,6.5-6.5C39.1,21,42,23.9,42,27.5z"></path>
		<path class="st2" d="M51,44.5c0,3.6-2.9,6.5-6.5,6.5c-3.6,0-6.5-2.9-6.5-6.5c0-3.6,2.9-6.5,6.5-6.5C48.1,38,51,40.9,51,44.5z"></path>
		<path class="st2" d="M33,44.5c0,3.6-2.9,6.5-6.5,6.5c-3.6,0-6.5-2.9-6.5-6.5c0-3.6,2.9-6.5,6.5-6.5C30.1,38,33,40.9,33,44.5z"></path>
	</g>
</g>
</svg>
