<?xml version="1.0" encoding="UTF-8"?>
<!-- Generator: Adobe Illustrator 28.1.0, SVG Export Plug-In . SVG Version: 6.00 Build 0)  -->
<svg xmlns="http://www.w3.org/2000/svg" xmlns:xlink="http://www.w3.org/1999/xlink" version="1.1" id="Layer_1" x="0px" y="0px" viewBox="0 0 71 71" style="enable-background:new 0 0 71 71;" xml:space="preserve">
<style type="text/css">
	.st0{fill:#FFFFFF;}
	.st1{clip-path:url(#SVGID_00000049934653832594517670000004701574758077100962_);}
	.st2{fill:none;stroke:#232323;stroke-miterlimit:10;}
</style>
<rect class="st0" width="71" height="71"></rect>
<g>
	<defs>
		<rect id="SVGID_1_" x="19.5" y="19.5" width="32" height="32"></rect>
	</defs>
	<clipPath id="SVGID_00000082328944983932066910000009238856093010437523_">
		<use xlink:href="#SVGID_1_" style="overflow:visible;"></use>
	</clipPath>
	<g style="clip-path:url(#SVGID_00000082328944983932066910000009238856093010437523_);">
		<path class="st2" d="M41.8,33.3L41.8,33.3c4.9,0,8.8,3.9,8.8,8.8v0c0,4.9-3.9,8.8-8.8,8.8h0c-4.9,0-8.8-3.9-8.8-8.8v0    C33,37.3,36.9,33.3,41.8,33.3z"></path>
		<path class="st2" d="M28.8,20c4.9,0,8.8,4,8.8,8.8c0,4.9-4,8.8-8.8,8.8c-4.9,0-8.8-4-8.8-8.8C20,24,24,20,28.8,20z"></path>
	</g>
</g>
</svg>
