<?xml version="1.0" encoding="UTF-8"?>
<svg xmlns="http://www.w3.org/2000/svg" width="138" height="46" viewBox="0 0 138 46" fill="none">
  <g clip-path="url(#clip0_3772_4424)">
    <path d="M127.009 0H10.9906C10.5755 0 10.1603 0 9.73358 0C9.37606 0 9.03008 0 8.67257 0.0115C7.89988 0.0115 7.12719 0.092 6.36604 0.2185C5.60488 0.345 4.86679 0.5865 4.17483 0.943C3.48287 1.2995 2.8601 1.748 2.30654 2.3C1.75297 2.8405 1.29166 3.473 0.945679 4.163C0.599699 4.853 0.357513 5.589 0.230654 6.348C0.0922614 7.107 0.0230653 7.8775 0.0230653 8.648C0.0230653 9.0045 0.0115327 9.3495 0 9.706V36.2825C0 36.639 0 36.984 0.0230653 37.3405C0.0230653 38.111 0.103794 38.8815 0.230654 39.6405C0.357513 40.3995 0.599699 41.147 0.957212 41.8255C1.30319 42.5155 1.7645 43.1365 2.31807 43.677C2.8601 44.229 3.4944 44.6775 4.18636 45.034C4.87832 45.379 5.61641 45.632 6.37757 45.7585C7.13873 45.885 7.91142 45.954 8.6841 45.9655C9.04162 45.9655 9.3876 45.977 9.74511 45.977C10.1718 45.977 10.587 45.977 11.0022 45.977H127.021C127.436 45.977 127.851 45.977 128.266 45.977C128.612 45.977 128.981 45.977 129.327 45.9655C130.1 45.9655 130.873 45.885 131.634 45.7585C132.395 45.632 133.145 45.379 133.837 45.034C134.529 44.689 135.151 44.229 135.705 43.677C136.259 43.1365 136.708 42.504 137.066 41.8255C137.412 41.1355 137.654 40.3995 137.781 39.6405C137.908 38.8815 137.977 38.111 138 37.3405C138 36.984 138 36.639 138 36.2825C138 35.8685 138 35.4545 138 35.029V10.971C138 10.5455 138 10.1315 138 9.7175C138 9.361 138 9.016 138 8.6595C137.988 7.889 137.919 7.1185 137.781 6.3595C137.654 5.6005 137.412 4.8645 137.066 4.1745C136.351 2.7945 135.221 1.6675 133.837 0.9545C133.145 0.6095 132.407 0.368 131.634 0.23C130.873 0.1035 130.1 0.0345 129.327 0.023C128.981 0.023 128.612 0.0115 128.266 0.0115C127.851 0.0115 127.436 0.0115 127.021 0.0115L127.009 0Z" fill="white"></path>
    <path d="M28.8279 22.8734C28.851 20.8494 29.9235 18.9749 31.6534 17.9054C30.5578 16.3414 28.7818 15.3869 26.8674 15.3294C24.8492 15.1224 22.9001 16.5254 21.8737 16.5254C20.8473 16.5254 19.2443 15.3409 17.549 15.3754C15.3116 15.4444 13.2704 16.6864 12.1863 18.6414C9.86822 22.6434 11.5981 28.5314 13.8239 31.7629C14.9311 33.3499 16.2343 35.1209 17.9296 35.0519C19.5903 34.9829 20.213 33.9939 22.2197 33.9939C24.2264 33.9939 24.7915 35.0519 26.5214 35.0174C28.309 34.9829 29.4276 33.4304 30.5002 31.8204C31.2959 30.6934 31.9187 29.4399 32.3223 28.1174C30.2003 27.2204 28.8279 25.1504 28.8164 22.8619L28.8279 22.8734Z" fill="#232323"></path>
    <path d="M25.5537 13.2018C26.5224 12.0403 27.0068 10.5338 26.8915 9.02734C25.4037 9.18834 24.0314 9.88984 23.0395 11.0168C22.0708 12.1208 21.5749 13.5698 21.6672 15.0418C23.1779 15.0533 24.608 14.3863 25.5537 13.2133V13.2018Z" fill="#232323"></path>
    <path d="M48.7793 31.212H43.3244L42.0097 35.076H39.7031L44.8698 20.793H47.2686L52.4352 35.076H50.0825L48.7678 31.212H48.7793ZM43.8895 29.4295H48.2142L46.0807 23.162H46.023L43.8895 29.4295Z" fill="#232323"></path>
    <path d="M63.6108 29.8659C63.6108 33.0974 61.8694 35.1789 59.2515 35.1789C57.9021 35.2479 56.622 34.5464 55.9646 33.3619H55.9185V38.5139H53.7734V24.6564H55.8493V26.3929H55.8839C56.5643 25.2199 57.8445 24.5069 59.2053 24.5529C61.8578 24.5529 63.5993 26.6459 63.5993 29.8659H63.6108ZM61.4081 29.8659C61.4081 27.7614 60.3125 26.3699 58.6518 26.3699C56.9911 26.3699 55.907 27.7844 55.907 29.8659C55.907 31.9474 57.0141 33.3734 58.6518 33.3734C60.2894 33.3734 61.4081 31.9934 61.4081 29.8659Z" fill="#232323"></path>
    <path d="M75.0952 29.8659C75.0952 33.0974 73.3538 35.1789 70.7358 35.1789C69.3865 35.2479 68.1064 34.5464 67.449 33.3619H67.4029V38.5139H65.2578V24.6564H67.3337V26.3929H67.3683C68.0487 25.2199 69.3288 24.5069 70.6897 24.5529C73.3422 24.5529 75.0837 26.6459 75.0837 29.8659H75.0952ZM72.8924 29.8659C72.8924 27.7614 71.7968 26.3699 70.1361 26.3699C68.4754 26.3699 67.3914 27.7844 67.3914 29.8659C67.3914 31.9474 68.4985 33.3734 70.1361 33.3734C71.7738 33.3734 72.8924 31.9934 72.8924 29.8659Z" fill="#232323"></path>
    <path d="M82.699 31.0963C82.8605 32.5108 84.2329 33.4423 86.1242 33.4423C88.0156 33.4423 89.2265 32.5108 89.2265 31.2343C89.2265 30.1303 88.4423 29.4633 86.5855 29.0033L84.7288 28.5548C82.0993 27.9223 80.8769 26.6918 80.8769 24.7023C80.8769 22.2413 83.0335 20.5508 86.0896 20.5508C89.1458 20.5508 91.1871 22.2413 91.2563 24.7023H89.0881C88.9613 23.2763 87.7734 22.4138 86.055 22.4138C84.3367 22.4138 83.1488 23.2878 83.1488 24.5528C83.1488 25.5648 83.8984 26.1513 85.7436 26.6113L87.3236 27.0023C90.2645 27.6923 91.4869 28.8768 91.4869 30.9583C91.4869 33.6263 89.3534 35.3053 85.9628 35.3053C82.7913 35.3053 80.6462 33.6723 80.5078 31.0848H82.699V31.0963Z" fill="#232323"></path>
    <path d="M96.1242 22.1953V24.6563H98.1079V26.3468H96.1242V32.0853C96.1242 32.9823 96.5163 33.3963 97.3928 33.3963C97.6235 33.3963 97.8657 33.3733 98.0963 33.3503V35.0293C97.7042 35.0983 97.3006 35.1328 96.9085 35.1328C94.798 35.1328 93.9676 34.3393 93.9676 32.3268V26.3583H92.4453V24.6678H93.9676V22.2068H96.1242V22.1953Z" fill="#232323"></path>
    <path d="M99.25 29.8672C99.25 26.5897 101.187 24.5312 104.198 24.5312C107.208 24.5312 109.145 26.5897 109.145 29.8672C109.145 33.1447 107.231 35.2033 104.198 35.2033C101.164 35.2033 99.25 33.1562 99.25 29.8672ZM106.977 29.8672C106.977 27.6247 105.939 26.2908 104.209 26.2908C102.479 26.2908 101.441 27.6247 101.441 29.8672C101.441 32.1097 102.479 33.4437 104.209 33.4437C105.939 33.4437 106.977 32.1327 106.977 29.8672Z" fill="#232323"></path>
    <path d="M110.93 24.6552H112.971V26.4262H113.017C113.305 25.2877 114.355 24.5057 115.531 24.5402C115.773 24.5402 116.027 24.5632 116.269 24.6207V26.6217C115.958 26.5297 115.635 26.4837 115.312 26.4952C114.124 26.4492 113.109 27.3692 113.063 28.5652C113.063 28.6802 113.063 28.7837 113.075 28.8987V35.0742H110.93V24.6667V24.6552Z" fill="#232323"></path>
    <path d="M126.141 32.0178C125.853 33.9038 124.007 35.2033 121.643 35.2033C118.61 35.2033 116.719 33.1792 116.719 29.9133C116.719 26.6473 118.61 24.5312 121.551 24.5312C124.492 24.5312 126.256 26.5092 126.256 29.6717V30.4078H118.887V30.5342C118.76 32.0292 119.856 33.3403 121.355 33.4783C121.47 33.4783 121.586 33.4898 121.689 33.4783C122.727 33.5703 123.708 32.9838 124.1 32.0178H126.129H126.141ZM118.898 28.9127H124.123C124.203 27.5327 123.142 26.3483 121.759 26.2793C121.689 26.2793 121.632 26.2793 121.562 26.2793C120.098 26.2793 118.91 27.4407 118.898 28.9012C118.898 28.9012 118.898 28.9127 118.898 28.9242V28.9127Z" fill="#232323"></path>
    <path d="M43.6317 10.0388C45.3039 9.92384 46.7686 11.1773 46.8839 12.8448C46.8954 13.0403 46.8839 13.2473 46.8724 13.4428C46.8724 15.6393 45.6845 16.8928 43.6317 16.8928H41.1406V10.0273H43.6317V10.0388ZM42.2132 15.9268H43.5048C44.6927 15.9958 45.7191 15.0873 45.7883 13.9028C45.7883 13.7533 45.7883 13.6038 45.7652 13.4543C45.9267 12.2698 45.0963 11.1773 43.9085 11.0163C43.7701 10.9933 43.6317 10.9933 43.4933 11.0048H42.2016V15.9268H42.2132Z" fill="#232323"></path>
    <path d="M48.0734 14.3076C47.9466 12.9621 48.9384 11.7661 50.2877 11.6281C51.637 11.5016 52.8364 12.4906 52.9748 13.8361C52.9864 13.9971 52.9864 14.1466 52.9748 14.3076C53.1017 15.6531 52.1214 16.8606 50.7605 16.9871C49.4112 17.1136 48.2003 16.1361 48.0734 14.7791C48.0619 14.6181 48.0619 14.4571 48.0734 14.3076ZM51.9138 14.3076C51.9138 13.1806 51.4064 12.5251 50.5184 12.5251C49.6303 12.5251 49.1229 13.1806 49.1229 14.3076C49.1229 15.4346 49.6188 16.0901 50.5184 16.0901C51.4064 16.0901 51.9138 15.4346 51.9138 14.3076Z" fill="#232323"></path>
    <path d="M59.4773 16.9055H58.4163L57.3437 13.0875H57.263L56.1905 16.9055H55.141L53.7109 11.7305H54.7489L55.683 15.6865H55.7638L56.8363 11.7305H57.8166L58.8891 15.6865H58.9698L59.8925 11.7305H60.9189L59.4888 16.9055H59.4773Z" fill="#232323"></path>
    <path d="M62.1094 11.719H63.1012V12.547H63.1819C63.4472 11.9375 64.0699 11.5695 64.7273 11.627C65.6614 11.558 66.4687 12.248 66.5379 13.1795C66.5379 13.306 66.5379 13.4325 66.5264 13.5475V16.894H65.5V13.8005C65.5 12.9725 65.1425 12.5585 64.3813 12.5585C63.724 12.524 63.1704 13.03 63.1358 13.6855C63.1358 13.743 63.1358 13.812 63.1358 13.8695V16.894H62.1094V11.719Z" fill="#232323"></path>
    <path d="M68.1484 9.70703H69.1748V16.906H68.1484V9.70703Z" fill="#232323"></path>
    <path d="M70.6047 14.3076C70.4778 12.9621 71.4696 11.7661 72.819 11.6281C74.1683 11.5016 75.3677 12.4906 75.5061 13.8361C75.5176 13.9971 75.5176 14.1466 75.5061 14.3076C75.6329 15.6531 74.6526 16.8606 73.2918 16.9871C71.9309 17.1136 70.7315 16.1361 70.6047 14.7791C70.5931 14.6181 70.5931 14.4571 70.6047 14.3076ZM74.4451 14.3076C74.4451 13.1806 73.9376 12.5251 73.0496 12.5251C72.1616 12.5251 71.6542 13.1806 71.6542 14.3076C71.6542 15.4346 72.1501 16.0901 73.0496 16.0901C73.9376 16.0901 74.4451 15.4346 74.4451 14.3076Z" fill="#232323"></path>
    <path d="M76.5781 15.4354C76.5781 14.5039 77.2701 13.9634 78.5041 13.8944L79.9111 13.8139V13.3654C79.9111 12.8134 79.5536 12.5144 78.8501 12.5144C78.2734 12.5144 77.8813 12.7214 77.766 13.0894H76.7742C76.878 12.2039 77.7199 11.6289 78.8962 11.6289C80.1994 11.6289 80.9375 12.2729 80.9375 13.3654V16.9074H79.9457V16.1829H79.8649C79.5305 16.7119 78.9308 17.0224 78.308 16.9994C77.4431 17.0914 76.6704 16.4589 76.5897 15.6079C76.5897 15.5619 76.5897 15.5044 76.5897 15.4469L76.5781 15.4354ZM79.9111 14.9984V14.5614L78.6425 14.6419C77.9274 14.6879 77.6045 14.9294 77.6045 15.3894C77.6045 15.8494 78.0082 16.1254 78.5617 16.1254C79.2306 16.1944 79.8303 15.6999 79.8995 15.0329C79.8995 15.0214 79.8995 15.0099 79.8995 14.9869L79.9111 14.9984Z" fill="#232323"></path>
    <path d="M82.2893 14.307C82.2893 12.674 83.1312 11.639 84.4459 11.639C85.1033 11.6045 85.726 11.961 86.0374 12.5475H86.1182V9.70703H87.1446V16.906H86.1643V16.0895H86.0836C85.7491 16.6645 85.1264 17.021 84.4575 16.998C83.1312 16.998 82.3008 15.963 82.3008 14.3185L82.2893 14.307ZM83.3503 14.307C83.3503 15.411 83.8693 16.0665 84.7342 16.0665C85.5992 16.0665 86.1297 15.3995 86.1297 14.307C86.1297 13.2145 85.5877 12.5475 84.7342 12.5475C83.8808 12.5475 83.3503 13.2145 83.3503 14.307Z" fill="#232323"></path>
    <path d="M91.3781 14.3055C91.2513 12.96 92.2431 11.764 93.5924 11.626C94.9417 11.488 96.1411 12.4885 96.2795 13.834C96.291 13.995 96.291 14.1445 96.2795 14.3055C96.4064 15.651 95.4261 16.8585 94.0652 16.985C92.7159 17.1115 91.505 16.134 91.3781 14.777C91.3666 14.616 91.3666 14.455 91.3781 14.3055ZM95.2185 14.3055C95.2185 13.1785 94.7111 12.523 93.823 12.523C92.935 12.523 92.4276 13.1785 92.4276 14.3055C92.4276 15.4325 92.9235 16.088 93.823 16.088C94.7111 16.088 95.2185 15.4325 95.2185 14.3055Z" fill="#232323"></path>
    <path d="M97.6484 11.719H98.6402V12.547H98.721C98.9862 11.9375 99.609 11.5695 100.266 11.627C101.201 11.558 102.008 12.248 102.077 13.1795C102.077 13.306 102.077 13.4325 102.065 13.5475V16.894H101.039V13.8005C101.039 12.9725 100.682 12.5585 99.9204 12.5585C99.263 12.524 98.7094 13.03 98.6748 13.6855C98.6748 13.743 98.6748 13.812 98.6748 13.8695V16.894H97.6484V11.719Z" fill="#232323"></path>
    <path d="M107.857 10.4297V11.7407H108.987V12.6032H107.857V15.2712C107.857 15.8117 108.076 16.0532 108.595 16.0532C108.722 16.0532 108.86 16.0532 108.987 16.0302V16.8812C108.803 16.9157 108.618 16.9272 108.434 16.9387C107.292 16.9387 106.842 16.5362 106.842 15.5357V12.6147H106.023V11.7522H106.842V10.4412H107.869L107.857 10.4297Z" fill="#232323"></path>
    <path d="M110.375 9.70703H111.39V12.559H111.471C111.747 11.9495 112.382 11.5815 113.051 11.6275C113.996 11.5815 114.804 12.2945 114.85 13.2375C114.85 13.341 114.85 13.456 114.838 13.5595V16.906H113.812V13.8125C113.812 12.9845 113.431 12.5705 112.705 12.5705C112.036 12.513 111.448 13.0075 111.401 13.6745C111.401 13.7435 111.401 13.8125 111.401 13.8815V16.906H110.375V9.70703Z" fill="#232323"></path>
    <path d="M120.819 15.5044C120.531 16.4819 119.585 17.1144 118.57 16.9994C117.267 17.0339 116.183 16.0104 116.148 14.7109C116.148 14.5844 116.148 14.4579 116.172 14.3314C115.999 13.0204 116.921 11.8244 118.224 11.6519C118.34 11.6404 118.455 11.6289 118.559 11.6289C120 11.6289 120.877 12.6179 120.877 14.2394V14.5959H117.209V14.6534C117.14 15.4124 117.705 16.0679 118.467 16.1369C118.513 16.1369 118.559 16.1369 118.593 16.1369C119.089 16.1944 119.585 15.9529 119.827 15.5044H120.819ZM117.209 13.8369H119.827C119.873 13.1469 119.366 12.5489 118.674 12.5029C118.628 12.5029 118.593 12.5029 118.547 12.5029C117.809 12.5029 117.209 13.0779 117.198 13.8139C117.198 13.8139 117.198 13.8369 117.198 13.8484L117.209 13.8369Z" fill="#232323"></path>
  </g>
  <defs>
    <clipPath id="clip0_3772_4424">
      <rect width="138" height="46" fill="white"></rect>
    </clipPath>
  </defs>
</svg>
