<?xml version="1.0" encoding="UTF-8"?>
<svg xmlns="http://www.w3.org/2000/svg" width="160" height="46" viewBox="0 0 160 46" fill="none">
  <g clip-path="url(#clip0_3772_4408)">
    <path d="M154.073 0H5.92671C2.65348 0 0 2.57459 0 5.75051V40.2495C0 43.4254 2.65348 46 5.92671 46H154.073C157.347 46 160 43.4254 160 40.2495V5.75051C160 2.57459 157.347 0 154.073 0Z" fill="white"></path>
    <path d="M56.1955 11.7798C56.1955 12.7451 55.9004 13.5099 55.3103 14.0825C54.6401 14.7614 53.7717 15.105 52.6968 15.105C51.6219 15.105 50.7957 14.7614 50.0791 14.0702C49.3625 13.379 49 12.5242 49 11.5017C49 10.4792 49.3583 9.62441 50.0791 8.9332C50.7957 8.242 51.6683 7.89844 52.6968 7.89844C53.2069 7.89844 53.6916 7.9966 54.1553 8.18883C54.619 8.38106 54.9899 8.63872 55.2681 8.95774L54.6443 9.56306C54.1722 9.01909 53.523 8.74506 52.6968 8.74506C51.9465 8.74506 51.3016 8.99864 50.7536 9.50989C50.2056 10.0211 49.9358 10.6837 49.9358 11.5017C49.9358 12.3197 50.2098 12.9823 50.7536 13.4935C51.3016 14.0048 51.9465 14.2584 52.6968 14.2584C53.4893 14.2584 54.1511 14.0007 54.6822 13.4894C55.0279 13.1541 55.226 12.6878 55.2766 12.0907H52.6926V11.2604H56.1365C56.1702 11.4404 56.1871 11.6121 56.1871 11.7798H56.1955Z" fill="#232323" stroke="white" stroke-width="0.2" stroke-miterlimit="10"></path>
    <path d="M61.6599 8.89741H58.4225V11.0855H61.3437V11.9158H58.4225V14.104H61.6599V14.9506H57.5078V8.05078H61.6599V8.89741Z" fill="#232323" stroke="white" stroke-width="0.2" stroke-miterlimit="10"></path>
    <path d="M65.5095 14.9506H64.5948V8.89741H62.6094V8.05078H67.4949V8.89741H65.5095V14.9506Z" fill="#232323" stroke="white" stroke-width="0.2" stroke-miterlimit="10"></path>
    <path d="M71.0312 14.9506V8.05078H71.946V14.9506H71.0312Z" fill="#232323" stroke="white" stroke-width="0.2" stroke-miterlimit="10"></path>
    <path d="M76.0017 14.9506H75.087V8.89741H73.1016V8.05078H77.9871V8.89741H76.0017V14.9506Z" fill="#232323" stroke="white" stroke-width="0.2" stroke-miterlimit="10"></path>
    <path d="M87.2363 14.0579C86.5365 14.7573 85.6682 15.105 84.627 15.105C83.5858 15.105 82.7175 14.7573 82.022 14.0579C81.3222 13.3626 80.9766 12.5078 80.9766 11.5017C80.9766 10.4956 81.3264 9.64077 82.022 8.94547C82.7217 8.24609 83.59 7.89844 84.627 7.89844C85.664 7.89844 86.5281 8.25018 87.2321 8.94956C87.9318 9.64895 88.2859 10.4997 88.2859 11.5017C88.2859 12.5038 87.936 13.3626 87.2405 14.0579H87.2363ZM82.6964 13.4813C83.2233 13.9966 83.8683 14.2584 84.627 14.2584C85.3858 14.2584 86.0349 14.0007 86.5576 13.4813C87.0845 12.9659 87.3501 12.3033 87.3501 11.5017C87.3501 10.7001 87.0845 10.0375 86.5576 9.52216C86.0307 9.00682 85.3858 8.74506 84.627 8.74506C83.8683 8.74506 83.2233 9.00273 82.6964 9.52216C82.1695 10.0375 81.9081 10.7001 81.9081 11.5017C81.9081 12.3033 82.1737 12.9659 82.6964 13.4813Z" fill="#232323" stroke="white" stroke-width="0.2" stroke-miterlimit="10"></path>
    <path d="M89.5703 14.9506V8.05078H90.6832L94.1397 13.4168H94.1776L94.1397 12.0876V8.05078H95.0544V14.9506H94.1018L90.485 9.32276H90.4471L90.485 10.652V14.9506H89.5703Z" fill="#232323" stroke="white" stroke-width="0.2" stroke-miterlimit="10"></path>
    <path d="M80.7528 25.0128C77.9664 25.0128 75.6944 27.0701 75.6944 29.9044C75.6944 32.7388 77.9664 34.796 80.7528 34.796C83.5391 34.796 85.8111 32.7224 85.8111 29.9044C85.8111 27.0864 83.5391 25.0128 80.7528 25.0128ZM80.7528 32.8696C79.2268 32.8696 77.9074 31.6467 77.9074 29.9044C77.9074 28.1621 79.2268 26.9392 80.7528 26.9392C82.2787 26.9392 83.5981 28.1416 83.5981 29.9044C83.5981 31.6672 82.2787 32.8696 80.7528 32.8696ZM69.7129 25.0128C66.9266 25.0128 64.6545 27.0701 64.6545 29.9044C64.6545 32.7388 66.9266 34.796 69.7129 34.796C72.4992 34.796 74.7712 32.7224 74.7712 29.9044C74.7712 27.0864 72.4992 25.0128 69.7129 25.0128ZM69.7129 32.8696C68.187 32.8696 66.8676 31.6467 66.8676 29.9044C66.8676 28.1621 68.187 26.9392 69.7129 26.9392C71.2388 26.9392 72.5582 28.1416 72.5582 29.9044C72.5582 31.6672 71.2388 32.8696 69.7129 32.8696ZM56.5822 26.5138V28.5874H61.6996C61.5479 29.7531 61.1474 30.6079 60.5362 31.2009C59.7901 31.9249 58.6267 32.7183 56.5822 32.7183C53.4334 32.7183 50.9675 30.2561 50.9675 27.1968C50.9675 24.1375 53.4292 21.6754 56.5822 21.6754C58.281 21.6754 59.5245 22.3257 60.4392 23.1559L61.9483 21.6917C60.6711 20.5056 58.9681 19.5977 56.5822 19.5977C52.2658 19.5977 48.6406 23.0046 48.6406 27.1927C48.6406 31.3809 52.27 34.7878 56.5822 34.7878C58.9133 34.7878 60.6669 34.0476 62.041 32.657C63.4532 31.2868 63.8916 29.3604 63.8916 27.8022C63.8916 27.3195 63.8536 26.8778 63.7778 26.5056H56.578L56.5822 26.5138ZM110.281 28.1253C109.859 27.0332 108.582 25.0128 105.964 25.0128C103.347 25.0128 101.21 26.9964 101.21 29.9044C101.21 32.6447 103.347 34.796 106.213 34.796C108.523 34.796 109.859 33.4259 110.416 32.6283L108.696 31.5159C108.123 32.3298 107.339 32.8696 106.213 32.8696C105.088 32.8696 104.283 32.3707 103.768 31.3891L110.509 28.6856L110.281 28.1294V28.1253ZM103.406 29.7572C103.347 27.8676 104.915 26.9024 106.04 26.9024C106.917 26.9024 107.663 27.3277 107.912 27.9412L103.406 29.7572ZM97.9259 34.5015H100.139V20.1253H97.9259V34.5015ZM94.2965 26.1089H94.2206C93.7232 25.5363 92.7706 25.0169 91.565 25.0169C89.0442 25.0169 86.7343 27.1641 86.7343 29.9249C86.7343 32.6856 89.0442 34.796 91.565 34.796C92.7663 34.796 93.7232 34.2766 94.2206 33.6835H94.2965V34.387C94.2965 36.2602 93.2637 37.2582 91.6029 37.2582C90.2456 37.2582 89.4068 36.3134 89.0653 35.5159L87.1347 36.293C87.6869 37.5895 89.1581 39.1846 91.6029 39.1846C94.1995 39.1846 96.3957 37.704 96.3957 34.0885V25.3073H94.2965V26.1048V26.1089ZM91.7589 32.8696C90.2329 32.8696 88.9515 31.6304 88.9515 29.9249C88.9515 28.2193 90.2329 26.9433 91.7589 26.9433C93.2848 26.9433 94.4525 28.203 94.4525 29.9249C94.4525 31.6467 93.268 32.8696 91.7589 32.8696ZM120.655 20.1253H115.356V34.5015H117.569V29.0537H120.659C123.112 29.0537 125.519 27.3318 125.519 24.5874C125.519 21.8431 123.108 20.1212 120.659 20.1212L120.655 20.1253ZM120.714 27.0537H117.569V22.1253H120.714C122.366 22.1253 123.306 23.4545 123.306 24.5874C123.306 25.7204 122.366 27.0496 120.714 27.0496V27.0537ZM134.38 24.9883C132.778 24.9883 131.121 25.6713 130.434 27.1887L132.399 27.9821C132.816 27.1887 133.6 26.9269 134.418 26.9269C135.56 26.9269 136.723 27.5936 136.745 28.7756V28.9228C136.344 28.702 135.488 28.3666 134.439 28.3666C132.323 28.3666 130.169 29.4954 130.169 31.6017C130.169 33.524 131.901 34.7633 133.849 34.7633C135.337 34.7633 136.154 34.1171 136.669 33.3563H136.745V34.4647H138.877V28.9514C138.877 26.3993 136.913 24.976 134.38 24.976V24.9883ZM134.114 32.8656C133.389 32.8656 132.377 32.5138 132.377 31.6467C132.377 30.5384 133.634 30.113 134.721 30.113C135.695 30.113 136.15 30.3175 136.74 30.5956C136.567 31.9289 135.387 32.8696 134.11 32.8696L134.114 32.8656ZM146.659 25.2991L144.126 31.5322H144.05L141.419 25.2991H139.038L142.983 34.0107L140.732 38.8574H143.038L149.121 25.2991H146.663H146.659ZM126.737 34.4975H128.95V20.1212H126.737V34.4975Z" fill="#232323"></path>
    <path d="M12.3388 8.70312C12.0142 9.05895 11.8203 9.59065 11.8203 10.2819V35.7134C11.8203 36.2941 11.9636 36.7604 12.1997 37.108L26.7382 22.834L12.3388 8.70312Z" fill="#232323"></path>
    <path d="M27.2586 22.3296L31.7479 17.9247L14.8319 8.59958C14.128 8.21103 13.4788 8.13332 12.9688 8.3051L27.2586 22.3337V22.3296Z" fill="#232323"></path>
    <path d="M27.2597 23.3439L12.7422 37.5934C13.286 37.8838 14.0194 37.847 14.833 37.3971L31.9597 27.9533L27.2597 23.3398V23.3439Z" fill="#232323"></path>
    <path d="M37.9407 21.3363L32.4103 18.2852L27.7734 22.8332L32.6168 27.5899L37.9407 24.6573C39.5973 23.7453 39.5973 22.2483 37.9407 21.3363Z" fill="#232323"></path>
  </g>
  <defs>
    <clipPath id="clip0_3772_4408">
      <rect width="160" height="46" fill="white"></rect>
    </clipPath>
  </defs>
</svg>
