<?xml version="1.0" encoding="utf-8"?>
<!-- Generator: Adobe Illustrator 28.1.0, SVG Export Plug-In . SVG Version: 6.00 Build 0)  -->
<svg version="1.1" id="Layer_1" xmlns="http://www.w3.org/2000/svg" xmlns:xlink="http://www.w3.org/1999/xlink" x="0px" y="0px"
	 viewBox="0 0 585 324" style="enable-background:new 0 0 585 324;" xml:space="preserve">
<style type="text/css">
	.st0{clip-path:url(#SVGID_00000095327960943433578910000003447535518555002240_);}
	.st1{opacity:0.3;}
	.st2{fill:url(#SVGID_00000009570682361055904280000009687461285896436920_);}
	.st3{fill:url(#SVGID_00000124139399427086387600000012533885341235010200_);}
	.st4{fill:url(#SVGID_00000044867368927789228320000004168475145622622874_);}
	.st5{fill:url(#SVGID_00000005966288668979063060000018069798102452802213_);}
</style>
<g>
	<defs>
		<rect id="SVGID_1_" y="0" width="585" height="324"/>
	</defs>
	<clipPath id="SVGID_00000080896137630867945280000014429273956288481424_">
		<use xlink:href="#SVGID_1_"  style="overflow:visible;"/>
	</clipPath>
	<g style="clip-path:url(#SVGID_00000080896137630867945280000014429273956288481424_);">
		<g class="st1">
			<g>
				
					<linearGradient id="SVGID_00000052782251467044680610000000672698888904209550_" gradientUnits="userSpaceOnUse" x1="357.3984" y1="162.2402" x2="-120.354" y2="162.2402" gradientTransform="matrix(1 0 0 -1 0 323.8898)">
					<stop  offset="0" style="stop-color:#909B9C"/>
					<stop  offset="1" style="stop-color:#909B9C;stop-opacity:0.4"/>
				</linearGradient>
				<path style="fill:url(#SVGID_00000052782251467044680610000000672698888904209550_);" d="M118.5,401.3
					c-63.8,0-123.8-24.9-168.9-70.2c-45.1-45.3-70-105.4-70-169.5c0-64,24.8-124.2,70-169.5C-5.3-53.1,54.7-78,118.5-78
					c63.8,0,123.8,24.9,168.9,70.2c45.1,45.3,70,105.4,70,169.5c0,64-24.8,124.2-70,169.5C242.3,376.4,182.3,401.3,118.5,401.3z
					 M118.5-75C55.5-75-3.7-50.4-48.3-5.7C-92.8,39-117.4,98.4-117.4,161.7S-92.8,284.3-48.3,329c44.6,44.7,103.8,69.3,166.8,69.3
					c63,0,122.2-24.6,166.8-69.3c44.6-44.7,69.1-104.1,69.1-167.3c0-63.2-24.5-122.6-69.1-167.3C240.8-50.4,181.5-75,118.5-75z"/>
			</g>
			<g>
				
					<linearGradient id="SVGID_00000143605896716916650310000009203007333845505168_" gradientUnits="userSpaceOnUse" x1="478" y1="160.0864" x2="-53.7641" y2="160.0864" gradientTransform="matrix(1 0 0 -1 0 323.8898)">
					<stop  offset="0" style="stop-color:#909B9C"/>
					<stop  offset="1" style="stop-color:#909B9C;stop-opacity:0.4"/>
				</linearGradient>
				<path style="fill:url(#SVGID_00000143605896716916650310000009203007333845505168_);" d="M238.9,401.3
					c-63.9,0-207.8,19.8-252.9-25.5C-59.2,330.6-53,226-53,162c0-64-9.2-125.8,36-171.1C28.2-54.4,175-78,238.9-78
					C302.7-78,362.8-53.1,408-7.8c45.2,45.3,70,105.4,70,169.5s-24.9,124.2-70,169.5C362.8,376.4,302.7,401.3,238.9,401.3z
					 M238.9-75C175.8-75,27.6-53.8-17-9.1C-61.6,35.6-53,98.8-53,162c0,63.2-5.7,169.1,38.9,213.8c44.6,44.7,189.9,22.5,252.9,22.5
					s122.4-24.6,167-69.3c44.6-44.7,69.2-104.1,69.2-167.3C475,98.4,450.4,39,405.8-5.7C361.2-50.4,301.9-75,238.9-75z"/>
			</g>
			<g>
				
					<linearGradient id="SVGID_00000123433307917329595810000005175774499923173794_" gradientUnits="userSpaceOnUse" x1="-233.4722" y1="162.2402" x2="237.3232" y2="162.2402" gradientTransform="matrix(1 0 0 -1 0 323.8898)">
					<stop  offset="0" style="stop-color:#909B9C"/>
					<stop  offset="1" style="stop-color:#909B9C;stop-opacity:0.4"/>
				</linearGradient>
				<path style="fill:url(#SVGID_00000123433307917329595810000005175774499923173794_);" d="M-1.6,401.3
					c-63.8,0-123.8-24.9-168.9-70.2c-45.1-45.3-70-105.4-70-169.5c0-64,24.8-124.2,70-169.5S-65.4-78-1.6-78
					c63.8,0,123.8,24.9,168.9,70.2c45.1,45.3,70,105.4,70,169.5c0,64-24.8,124.2-70,169.5C122.2,376.4,62.3,401.3-1.6,401.3z
					 M-1.6-75c-63,0-122.2,24.6-166.8,69.3c-44.6,44.7-69.1,104.1-69.1,167.3s24.5,122.6,69.1,167.3
					c44.6,44.7,103.8,69.3,166.8,69.3c63,0,122.2-24.6,166.8-69.3c44.6-44.7,69.1-104.1,69.1-167.3S209.8,39,165.2-5.7
					C120.7-50.4,61.4-75-1.6-75z"/>
			</g>
			<g>
				
					<linearGradient id="SVGID_00000128444460660350463420000016646590021010999170_" gradientUnits="userSpaceOnUse" x1="-242.752" y1="162.2402" x2="117.2368" y2="162.2402" gradientTransform="matrix(1 0 0 -1 0 323.8898)">
					<stop  offset="0" style="stop-color:#909B9C"/>
					<stop  offset="1" style="stop-color:#909B9C;stop-opacity:0.4"/>
				</linearGradient>
				<path style="fill:url(#SVGID_00000128444460660350463420000016646590021010999170_);" d="M-121.4,401.3
					c-63.7,0-123.7-24.9-168.7-70.2S-360,225.7-360,161.6s24.8-124.2,69.9-169.5S-185.1-78-121.4-78C-57.6-78,2.3-53.1,47.3-7.8
					c45.1,45.3,69.9,105.4,69.9,169.5S92.4,285.8,47.3,331.1C2.3,376.4-57.6,401.3-121.4,401.3z M-121.4-75
					C-184.3-75-243.5-50.4-288-5.7c-44.5,44.7-69,104.1-69,167.3c0,63.2,24.5,122.6,69,167.3c44.5,44.7,103.7,69.3,166.6,69.3
					c62.9,0,122.1-24.6,166.6-69.3c44.5-44.7,69-104.1,69-167.3c0-63.2-24.5-122.6-69-167.3C0.7-50.4-58.4-75-121.4-75z"/>
			</g>
		</g>
	</g>
</g>
</svg>
